<svg width="53" height="48" viewBox="0 0 53 48" fill="none" xmlns="http://www.w3.org/2000/svg">
<path d="M33.257 22.962C33.731 23.582 33.731 24.419 33.257 25.038C31.764 26.987 28.182 31 24 31C19.818 31 16.236 26.987 14.743 25.038C14.5124 24.7411 14.3872 24.3759 14.3872 24C14.3872 23.6241 14.5124 23.2589 14.743 22.962C16.236 21.013 19.818 17 24 17C28.182 17 31.764 21.013 33.257 22.962V22.962Z" stroke="#838688" stroke-width="2" stroke-linecap="round" stroke-linejoin="round"/>
<path d="M24 27C25.6569 27 27 25.6569 27 24C27 22.3431 25.6569 21 24 21C22.3432 21 21 22.3431 21 24C21 25.6569 22.3432 27 24 27Z" stroke="#838688" stroke-width="2" stroke-linecap="round" stroke-linejoin="round"/>
<rect x="25" width="28" height="20" rx="10" fill="#2A5275"/>
<path d="M34.822 5.172C35.4473 5.172 35.984 5.228 36.432 5.34C36.8893 5.44267 37.2393 5.648 37.482 5.956C37.7247 6.25467 37.846 6.698 37.846 7.286C37.846 7.68733 37.7947 8.06067 37.692 8.406C37.5893 8.75133 37.412 9.11067 37.16 9.484C36.9173 9.848 36.5813 10.268 36.152 10.744L33.422 13.74C33.6647 13.7213 33.9213 13.7073 34.192 13.698C34.4627 13.6887 34.724 13.684 34.976 13.684H38.196V15H31.742V14.16C31.742 14.0387 31.756 13.9313 31.784 13.838C31.812 13.7447 31.868 13.6513 31.952 13.558L34.668 10.506C35.2747 9.862 35.7227 9.288 36.012 8.784C36.3107 8.28 36.4507 7.80867 36.432 7.37C36.4227 6.94067 36.264 6.67 35.956 6.558C35.6573 6.446 35.242 6.39 34.71 6.39C34.402 6.39 34.1127 6.39467 33.842 6.404C33.5713 6.41333 33.282 6.43667 32.974 6.474C32.6753 6.502 32.3207 6.544 31.91 6.6L31.826 5.536C32.4887 5.37733 33.044 5.27933 33.492 5.242C33.94 5.19533 34.3833 5.172 34.822 5.172ZM42.5837 5.158C43.293 5.158 43.867 5.228 44.3057 5.368C44.7537 5.49867 45.0804 5.72733 45.2857 6.054C45.491 6.38067 45.5937 6.82867 45.5937 7.398C45.5937 8.03267 45.4957 8.56933 45.2997 9.008C45.1037 9.44667 44.7257 9.722 44.1657 9.834V9.89C44.8004 9.99267 45.239 10.254 45.4817 10.674C45.7244 11.094 45.8504 11.64 45.8597 12.312C45.869 13.3013 45.6404 14.0293 45.1737 14.496C44.707 14.9533 43.895 15.182 42.7377 15.182C42.215 15.182 41.6877 15.1587 41.1557 15.112C40.633 15.0653 40.1244 15.0047 39.6297 14.93L39.7137 13.824C40.2084 13.8707 40.6657 13.908 41.0857 13.936C41.5057 13.9547 41.9397 13.964 42.3877 13.964C43.1437 13.964 43.6804 13.8333 43.9977 13.572C44.315 13.3107 44.4737 12.8393 44.4737 12.158C44.4737 11.822 44.427 11.528 44.3337 11.276C44.2404 11.0147 44.0584 10.814 43.7877 10.674C43.5264 10.5247 43.1437 10.45 42.6397 10.45L40.8337 10.464V9.414H42.6397C43.1344 9.40467 43.4937 9.32067 43.7177 9.162C43.951 9.00333 44.1004 8.798 44.1657 8.546C44.231 8.294 44.2637 8.02333 44.2637 7.734C44.2544 7.342 44.189 7.048 44.0677 6.852C43.9557 6.656 43.7644 6.52533 43.4937 6.46C43.223 6.39467 42.8497 6.362 42.3737 6.362C41.9164 6.362 41.4684 6.376 41.0297 6.404C40.6004 6.42267 40.2224 6.44133 39.8957 6.46L39.7977 5.41C40.7684 5.242 41.697 5.158 42.5837 5.158Z" fill="white"/>
</svg>
