<svg width="64" height="64" viewBox="0 0 64 64" fill="none" xmlns="http://www.w3.org/2000/svg">
<path d="M28.3816 31.7034C29.2096 31.7034 29.8807 31.0394 29.8807 30.2203C29.8807 29.4011 29.2096 28.7371 28.3816 28.7371C27.5537 28.7371 26.8826 29.4011 26.8826 30.2203C26.8826 31.0394 27.5537 31.7034 28.3816 31.7034Z" fill="#BFCBD6"/>
<path d="M37.4893 31.7034C38.3173 31.7034 38.9884 31.0394 38.9884 30.2203C38.9884 29.4011 38.3173 28.7371 37.4893 28.7371C36.6614 28.7371 35.9903 29.4011 35.9903 30.2203C35.9903 31.0394 36.6614 31.7034 37.4893 31.7034Z" fill="#BFCBD6"/>
<path d="M41.5402 14.1385C41.4782 14.0629 41.4 14.0018 41.3113 13.9597C41.2226 13.9175 41.1256 13.8953 41.0272 13.8946H30.0661C29.6174 13.8946 29.2998 14.3332 29.4398 14.7595C29.5287 15.0301 29.7813 15.213 30.0661 15.213H40.1544L38.3755 22.1455H28.3816L25.3369 13.5848C25.3039 13.4836 25.2467 13.3918 25.1702 13.3172C25.0936 13.2426 24.9999 13.1874 24.8971 13.1564L22.1655 12.3258C22.0815 12.3003 21.9932 12.2914 21.9058 12.2996C21.8183 12.3078 21.7333 12.333 21.6556 12.3737C21.4988 12.4559 21.3815 12.5963 21.3293 12.7642C21.2772 12.932 21.2946 13.1134 21.3777 13.2686C21.4608 13.4237 21.6028 13.5399 21.7724 13.5914L24.1642 14.3165L27.2224 22.8969L26.1297 23.7802L26.0431 23.8659C25.7728 24.174 25.6196 24.5658 25.6099 24.9737C25.6002 25.3816 25.7345 25.78 25.9898 26.1005C26.1714 26.319 26.4021 26.4924 26.6636 26.6068C26.9251 26.7213 27.21 26.7736 27.4955 26.7596H38.6153C38.792 26.7596 38.9615 26.6902 39.0864 26.5666C39.2114 26.4429 39.2816 26.2753 39.2816 26.1005C39.2816 25.9256 39.2114 25.758 39.0864 25.6344C38.9615 25.5107 38.792 25.4413 38.6153 25.4413H27.3889C27.3122 25.4387 27.2374 25.4166 27.1719 25.3771C27.1063 25.3375 27.0522 25.282 27.0147 25.2157C26.9772 25.1494 26.9576 25.0747 26.9578 24.9988C26.958 24.9228 26.978 24.8482 27.0158 24.7821L28.6215 23.4638H38.9085C39.0625 23.4675 39.213 23.4183 39.3345 23.3246C39.456 23.2308 39.5409 23.0983 39.5747 22.9497L41.6867 14.6988C41.707 14.6006 41.7043 14.499 41.6789 14.4019C41.6535 14.3048 41.6061 14.2147 41.5402 14.1385Z" fill="#BFCBD6"/>
<path fill-rule="evenodd" clip-rule="evenodd" d="M41.0272 13.8946C41.1256 13.8953 41.2226 13.9175 41.3113 13.9597C41.4 14.0018 41.4782 14.0629 41.5402 14.1385C41.6061 14.2147 41.6535 14.3048 41.6789 14.4019C41.7043 14.499 41.707 14.6006 41.6867 14.6988L39.5747 22.9497C39.5409 23.0983 39.456 23.2308 39.3345 23.3246C39.213 23.4183 39.0625 23.4675 38.9085 23.4638H28.6215L27.0158 24.7821C26.978 24.8482 26.958 24.9228 26.9578 24.9988C26.9576 25.0747 26.9772 25.1494 27.0147 25.2157C27.0522 25.282 27.1063 25.3375 27.1719 25.3771C27.2374 25.4166 27.3122 25.4387 27.3889 25.4413H38.6153C38.792 25.4413 38.9615 25.5107 39.0864 25.6344C39.2114 25.758 39.2816 25.9256 39.2816 26.1005C39.2816 26.2753 39.2114 26.4429 39.0864 26.5666C38.9615 26.6902 38.792 26.7596 38.6153 26.7596H27.4955C27.21 26.7736 26.9251 26.7213 26.6636 26.6068C26.4021 26.4924 26.1714 26.319 25.9898 26.1005C25.7345 25.78 25.6002 25.3816 25.6099 24.9737C25.6196 24.5658 25.7728 24.174 26.0431 23.8659L26.1297 23.7802L27.2224 22.8969L24.1642 14.3165L21.7724 13.5914C21.6028 13.5399 21.4608 13.4237 21.3777 13.2686C21.2946 13.1134 21.2772 12.932 21.3293 12.7642C21.3815 12.5963 21.4988 12.4559 21.6556 12.3737C21.7333 12.333 21.8183 12.3078 21.9058 12.2996C21.9932 12.2914 22.0815 12.3003 22.1655 12.3258L24.8971 13.1564C24.9999 13.1874 25.0936 13.2426 25.1702 13.3172C25.2467 13.3918 25.3039 13.4836 25.3369 13.5848L28.3816 22.1455H38.3755L40.1544 15.213H30.0661C29.7813 15.213 29.5287 15.0301 29.4398 14.7595C29.2998 14.3332 29.6174 13.8946 30.0661 13.8946H41.0272ZM39.7805 15.5096H30.0631C29.6501 15.5096 29.2839 15.2444 29.155 14.8521C28.9519 14.234 29.4124 13.598 30.0631 13.598H41.0291C41.1718 13.599 41.3125 13.6312 41.4412 13.6923C41.5686 13.7529 41.681 13.8404 41.7705 13.9487C41.8648 14.0585 41.9327 14.1881 41.9692 14.3276C42.006 14.4684 42.0099 14.6156 41.9805 14.7581L41.9792 14.7643L39.8672 23.0148M39.7805 15.5096L38.135 21.8488H28.6014L25.6228 13.4955L25.6222 13.4939C25.5745 13.3472 25.4916 13.214 25.3805 13.1059C25.2696 12.9977 25.1339 12.9178 24.9849 12.8728L22.2536 12.0423C22.1319 12.0053 22.0041 11.9924 21.8774 12.0043C21.7508 12.0162 21.6277 12.0526 21.5153 12.1116C21.2882 12.2306 21.1182 12.434 21.0427 12.677C20.9673 12.9201 20.9924 13.1828 21.1128 13.4075C21.2331 13.6321 21.4387 13.8003 21.6843 13.875L23.9259 14.5545L26.8751 22.7946L25.9283 23.5599L25.8236 23.6636L25.8166 23.6715C25.5006 24.0318 25.3215 24.4898 25.3102 24.9667C25.2988 25.4436 25.4559 25.9095 25.7543 26.2841L25.7582 26.2889C25.9695 26.5431 26.238 26.7449 26.5423 26.8781C26.8442 27.0102 27.1729 27.0712 27.5026 27.0563H38.6153C38.8715 27.0563 39.1173 26.9556 39.2984 26.7763C39.4796 26.5971 39.5814 26.354 39.5814 26.1005C39.5814 25.847 39.4796 25.6039 39.2984 25.4246C39.1172 25.2454 38.8715 25.1447 38.6153 25.1447H27.3954C27.3715 25.1433 27.3484 25.1361 27.3279 25.1238C27.3064 25.1108 27.2886 25.0925 27.2763 25.0708C27.264 25.049 27.2575 25.0245 27.2576 24.9995C27.2576 24.9881 27.259 24.9767 27.2617 24.9657L28.7297 23.7604H38.9051C39.1271 23.7649 39.3438 23.6936 39.5189 23.5585C39.695 23.4226 39.8181 23.2303 39.8672 23.0148M30.1805 30.2203C30.1805 31.2032 29.3751 32 28.3816 32C27.3881 32 26.5828 31.2032 26.5828 30.2203C26.5828 29.2373 27.3881 28.4405 28.3816 28.4405C29.3751 28.4405 30.1805 29.2373 30.1805 30.2203ZM39.2882 30.2203C39.2882 31.2032 38.4828 32 37.4893 32C36.4958 32 35.6905 31.2032 35.6905 30.2203C35.6905 29.2373 36.4958 28.4405 37.4893 28.4405C38.4828 28.4405 39.2882 29.2373 39.2882 30.2203ZM28.3816 31.7034C29.2096 31.7034 29.8807 31.0394 29.8807 30.2203C29.8807 29.4011 29.2096 28.7371 28.3816 28.7371C27.5537 28.7371 26.8826 29.4011 26.8826 30.2203C26.8826 31.0394 27.5537 31.7034 28.3816 31.7034ZM37.4893 31.7034C38.3173 31.7034 38.9884 31.0394 38.9884 30.2203C38.9884 29.4011 38.3173 28.7371 37.4893 28.7371C36.6614 28.7371 35.9903 29.4011 35.9903 30.2203C35.9903 31.0394 36.6614 31.7034 37.4893 31.7034Z" fill="#BFCBD6"/>
<path d="M8.49686 43.03V45.838C8.49686 46.1933 8.47086 46.5357 8.41886 46.865H9.39386C9.91386 46.8563 10.3342 46.6873 10.6549 46.358C10.9755 46.02 11.2529 45.565 11.4869 44.993C11.7295 44.4123 11.9765 43.758 12.2279 43.03H13.3979C13.1119 43.8533 12.8432 44.577 12.5919 45.201C12.3405 45.8163 12.0502 46.306 11.7209 46.67C11.4002 47.0253 10.9799 47.2333 10.4599 47.294V47.346C10.8845 47.3807 11.2399 47.5107 11.5259 47.736C11.8205 47.9613 12.0762 48.2733 12.2929 48.672C12.5095 49.0707 12.7219 49.5517 12.9299 50.115C13.1379 50.6697 13.3719 51.298 13.6319 52H12.4229C12.1802 51.324 11.9635 50.726 11.7729 50.206C11.5822 49.686 11.3785 49.2483 11.1619 48.893C10.9539 48.529 10.7112 48.256 10.4339 48.074C10.1565 47.8833 9.80986 47.788 9.39386 47.788H8.41886C8.44486 47.9527 8.4622 48.113 8.47086 48.269C8.4882 48.425 8.49686 48.581 8.49686 48.737V52H7.36586V43.03H8.49686ZM17.6589 45.513C18.3869 45.513 18.9676 45.6213 19.4009 45.838C19.8343 46.0547 20.1463 46.41 20.3369 46.904C20.5363 47.3893 20.6359 48.035 20.6359 48.841C20.6359 49.647 20.5363 50.297 20.3369 50.791C20.1463 51.2763 19.8343 51.6273 19.4009 51.844C18.9676 52.0607 18.3869 52.169 17.6589 52.169C16.9309 52.169 16.3459 52.0607 15.9039 51.844C15.4706 51.6273 15.1543 51.2763 14.9549 50.791C14.7643 50.297 14.6689 49.647 14.6689 48.841C14.6689 48.035 14.7643 47.3893 14.9549 46.904C15.1543 46.41 15.4706 46.0547 15.9039 45.838C16.3459 45.6213 16.9309 45.513 17.6589 45.513ZM17.6589 46.449C17.1996 46.449 16.8356 46.5227 16.5669 46.67C16.2983 46.8087 16.1076 47.0513 15.9949 47.398C15.8823 47.7447 15.8259 48.2257 15.8259 48.841C15.8259 49.4563 15.8823 49.9373 15.9949 50.284C16.1076 50.6307 16.2983 50.8777 16.5669 51.025C16.8356 51.1637 17.1996 51.233 17.6589 51.233C18.1183 51.233 18.4779 51.1637 18.7379 51.025C19.0066 50.8777 19.1973 50.6307 19.3099 50.284C19.4226 49.9373 19.4789 49.4563 19.4789 48.841C19.4789 48.2257 19.4226 47.7447 19.3099 47.398C19.1973 47.0513 19.0066 46.8087 18.7379 46.67C18.4779 46.5227 18.1183 46.449 17.6589 46.449ZM23.3047 45.669L23.4087 46.67C23.7553 46.3147 24.1627 46.033 24.6307 45.825C25.1073 45.617 25.571 45.513 26.0217 45.513C26.8017 45.513 27.3607 45.799 27.6987 46.371C28.0367 46.9343 28.2057 47.7663 28.2057 48.867C28.2057 49.6817 28.119 50.3317 27.9457 50.817C27.7723 51.2937 27.508 51.636 27.1527 51.844C26.7973 52.052 26.351 52.156 25.8137 52.156C25.3977 52.156 24.986 52.104 24.5787 52C24.18 51.8873 23.8073 51.7227 23.4607 51.506C23.478 51.7227 23.491 51.9307 23.4997 52.13C23.5083 52.338 23.5083 52.5547 23.4997 52.78V54.613H22.4077V45.669H23.3047ZM25.6707 46.475C25.324 46.475 24.9817 46.5573 24.6437 46.722C24.3143 46.878 23.933 47.1207 23.4997 47.45V50.817C23.8983 50.921 24.2493 51.012 24.5527 51.09C24.8647 51.1593 25.1897 51.194 25.5277 51.194C25.9003 51.194 26.195 51.129 26.4117 50.999C26.637 50.869 26.8017 50.635 26.9057 50.297C27.0097 49.959 27.0617 49.4823 27.0617 48.867C27.0617 47.9657 26.9533 47.3417 26.7367 46.995C26.5287 46.6483 26.1733 46.475 25.6707 46.475ZM31.6248 45.565C32.3268 45.565 32.8858 45.6127 33.3018 45.708C33.7178 45.7947 34.0168 45.9593 34.1988 46.202C34.3894 46.4447 34.4848 46.7957 34.4848 47.255C34.4848 47.7057 34.3851 48.0523 34.1858 48.295C33.9951 48.5377 33.6484 48.6807 33.1458 48.724V48.763C33.7091 48.8063 34.1078 48.9623 34.3418 49.231C34.5844 49.4997 34.7058 49.9027 34.7058 50.44C34.7058 50.882 34.6148 51.2243 34.4328 51.467C34.2508 51.7097 33.9604 51.8787 33.5618 51.974C33.1631 52.0693 32.6388 52.117 31.9888 52.117C31.5988 52.117 31.1828 52.0997 30.7408 52.065C30.2988 52.039 29.8784 51.9913 29.4798 51.922L29.5708 51.077C29.8568 51.103 30.2121 51.129 30.6368 51.155C31.0701 51.1723 31.4948 51.181 31.9108 51.181C32.5521 51.181 32.9854 51.116 33.2108 50.986C33.4448 50.8473 33.5618 50.5873 33.5618 50.206C33.5618 49.8073 33.4448 49.5387 33.2108 49.4C32.9768 49.2527 32.5521 49.179 31.9368 49.179H30.4158V48.373L31.9238 48.36C32.4871 48.36 32.8728 48.295 33.0808 48.165C33.2888 48.0263 33.3928 47.7707 33.3928 47.398C33.3928 47.0253 33.2671 46.7827 33.0158 46.67C32.7644 46.5573 32.3051 46.501 31.6378 46.501C31.2998 46.501 30.9618 46.5097 30.6238 46.527C30.2858 46.5443 29.9998 46.5703 29.7658 46.605L29.6748 45.76C30.0301 45.6733 30.3768 45.6213 30.7148 45.604C31.0614 45.578 31.3648 45.565 31.6248 45.565ZM41.987 45.669V52H40.986V47.801C40.986 47.6623 40.9903 47.528 40.999 47.398C41.0077 47.2593 41.0163 47.112 41.025 46.956H40.999C40.947 47.0773 40.8777 47.2073 40.791 47.346C40.713 47.476 40.635 47.593 40.557 47.697L37.333 52H36.423V45.669H37.424V49.868C37.424 50.0067 37.4197 50.1453 37.411 50.284C37.411 50.414 37.4023 50.557 37.385 50.713H37.411C37.5497 50.427 37.7013 50.1843 37.866 49.985L41.09 45.669H41.987ZM45.1449 45.669V48.217H48.4729V45.669H49.5649V52H48.4729V49.062H45.1449V52H44.0529V45.669H45.1449ZM54.6223 45.513C55.3243 45.513 55.8573 45.6603 56.2213 45.955C56.594 46.241 56.7803 46.7697 56.7803 47.541V52H55.9093L55.7793 50.96C55.6146 51.1247 55.4023 51.298 55.1423 51.48C54.8823 51.6533 54.5833 51.805 54.2453 51.935C53.916 52.0563 53.5563 52.117 53.1663 52.117C52.603 52.117 52.148 51.9653 51.8013 51.662C51.4546 51.3587 51.2813 50.921 51.2813 50.349V49.66C51.2813 49.166 51.433 48.7847 51.7363 48.516C52.0483 48.2387 52.4816 48.1 53.0363 48.1H55.6753V47.541C55.6666 47.151 55.5756 46.8737 55.4023 46.709C55.229 46.5357 54.891 46.449 54.3883 46.449C54.0503 46.449 53.63 46.4663 53.1273 46.501C52.6333 46.5357 52.1436 46.5747 51.6583 46.618L51.5543 45.799C51.9963 45.7297 52.499 45.6647 53.0623 45.604C53.6256 45.5433 54.1456 45.513 54.6223 45.513ZM53.3873 51.168C53.6993 51.1767 54.0633 51.103 54.4793 50.947C54.904 50.7823 55.3026 50.5353 55.6753 50.206V48.932L53.2313 48.945C52.928 48.9537 52.7113 49.036 52.5813 49.192C52.46 49.3393 52.3993 49.5473 52.3993 49.816V50.219C52.3993 50.5483 52.4773 50.791 52.6333 50.947C52.798 51.0943 53.0493 51.168 53.3873 51.168Z" fill="#BFCBD6"/>
</svg>
