<svg width="64" height="64" viewBox="0 0 64 64" fill="none" xmlns="http://www.w3.org/2000/svg">
<path d="M21 23C21.5523 23 22 22.5523 22 22C22 21.4477 21.5523 21 21 21C20.4477 21 20 21.4477 20 22C20 22.5523 20.4477 23 21 23Z" fill="#BFCBD6"/>
<path d="M42.7243 21H26.2757C25.5712 21 25 21.4209 25 21.94V22.06C25 22.5791 25.5712 23 26.2757 23H42.7243C43.4288 23 44 22.5791 44 22.06V21.94C44 21.4209 43.4288 21 42.7243 21Z" fill="#BFCBD6"/>
<path d="M42.7467 27H21.2533C20.5611 27 20 27.4209 20 27.94V28.06C20 28.5791 20.5611 29 21.2533 29H42.7467C43.4389 29 44 28.5791 44 28.06V27.94C44 27.4209 43.4389 27 42.7467 27Z" fill="#BFCBD6"/>
<path d="M42.7467 15H21.2533C20.5611 15 20 15.4209 20 15.94V16.06C20 16.5791 20.5611 17 21.2533 17H42.7467C43.4389 17 44 16.5791 44 16.06V15.94C44 15.4209 43.4389 15 42.7467 15Z" fill="#BFCBD6"/>
<path d="M9.63944 43.03V45.838C9.63944 46.1933 9.61344 46.5357 9.56144 46.865H10.5364C11.0564 46.8563 11.4768 46.6873 11.7974 46.358C12.1181 46.02 12.3954 45.565 12.6294 44.993C12.8721 44.4123 13.1191 43.758 13.3704 43.03H14.5404C14.2544 43.8533 13.9858 44.577 13.7344 45.201C13.4831 45.8163 13.1928 46.306 12.8634 46.67C12.5428 47.0253 12.1224 47.2333 11.6024 47.294V47.346C12.0271 47.3807 12.3824 47.5107 12.6684 47.736C12.9631 47.9613 13.2188 48.2733 13.4354 48.672C13.6521 49.0707 13.8644 49.5517 14.0724 50.115C14.2804 50.6697 14.5144 51.298 14.7744 52H13.5654C13.3228 51.324 13.1061 50.726 12.9154 50.206C12.7248 49.686 12.5211 49.2483 12.3044 48.893C12.0964 48.529 11.8538 48.256 11.5764 48.074C11.2991 47.8833 10.9524 47.788 10.5364 47.788H9.56144C9.58744 47.9527 9.60477 48.113 9.61344 48.269C9.63077 48.425 9.63944 48.581 9.63944 48.737V52H8.50844V43.03H9.63944ZM19.2024 45.513C19.9044 45.513 20.4374 45.6603 20.8014 45.955C21.174 46.241 21.3604 46.7697 21.3604 47.541V52H20.4894L20.3594 50.96C20.1947 51.1247 19.9824 51.298 19.7224 51.48C19.4624 51.6533 19.1634 51.805 18.8254 51.935C18.496 52.0563 18.1364 52.117 17.7464 52.117C17.183 52.117 16.728 51.9653 16.3814 51.662C16.0347 51.3587 15.8614 50.921 15.8614 50.349V49.66C15.8614 49.166 16.013 48.7847 16.3164 48.516C16.6284 48.2387 17.0617 48.1 17.6164 48.1H20.2554V47.541C20.2467 47.151 20.1557 46.8737 19.9824 46.709C19.809 46.5357 19.471 46.449 18.9684 46.449C18.6304 46.449 18.21 46.4663 17.7074 46.501C17.2134 46.5357 16.7237 46.5747 16.2384 46.618L16.1344 45.799C16.5764 45.7297 17.079 45.6647 17.6424 45.604C18.2057 45.5433 18.7257 45.513 19.2024 45.513ZM17.9674 51.168C18.2794 51.1767 18.6434 51.103 19.0594 50.947C19.484 50.7823 19.8827 50.5353 20.2554 50.206V48.932L17.8114 48.945C17.508 48.9537 17.2914 49.036 17.1614 49.192C17.04 49.3393 16.9794 49.5473 16.9794 49.816V50.219C16.9794 50.5483 17.0574 50.791 17.2134 50.947C17.378 51.0943 17.6294 51.168 17.9674 51.168ZM28.3772 45.669V46.579H26.0892V52H24.9842V46.579H22.6832V45.669H28.3772ZM32.7483 45.513C33.4503 45.513 33.9833 45.6603 34.3473 45.955C34.7199 46.241 34.9063 46.7697 34.9063 47.541V52H34.0353L33.9053 50.96C33.7406 51.1247 33.5283 51.298 33.2683 51.48C33.0083 51.6533 32.7093 51.805 32.3713 51.935C32.0419 52.0563 31.6823 52.117 31.2923 52.117C30.7289 52.117 30.2739 51.9653 29.9273 51.662C29.5806 51.3587 29.4073 50.921 29.4073 50.349V49.66C29.4073 49.166 29.5589 48.7847 29.8623 48.516C30.1743 48.2387 30.6076 48.1 31.1623 48.1H33.8013V47.541C33.7926 47.151 33.7016 46.8737 33.5283 46.709C33.3549 46.5357 33.0169 46.449 32.5143 46.449C32.1763 46.449 31.7559 46.4663 31.2533 46.501C30.7593 46.5357 30.2696 46.5747 29.7843 46.618L29.6803 45.799C30.1223 45.7297 30.6249 45.6647 31.1883 45.604C31.7516 45.5433 32.2716 45.513 32.7483 45.513ZM31.5133 51.168C31.8253 51.1767 32.1893 51.103 32.6053 50.947C33.0299 50.7823 33.4286 50.5353 33.8013 50.206V48.932L31.3573 48.945C31.0539 48.9537 30.8373 49.036 30.7073 49.192C30.5859 49.3393 30.5253 49.5473 30.5253 49.816V50.219C30.5253 50.5483 30.6033 50.791 30.7593 50.947C30.9239 51.0943 31.1753 51.168 31.5133 51.168ZM42.1571 45.669V52H41.0521V46.54H39.6741C39.4054 46.54 39.2104 46.6007 39.0891 46.722C38.9764 46.8347 38.8984 47.0383 38.8551 47.333C38.7858 47.905 38.7078 48.4943 38.6211 49.101C38.5344 49.699 38.4088 50.219 38.2441 50.661C37.9234 51.5883 37.2604 52.0563 36.2551 52.065L36.1381 51.22C36.4934 51.1333 36.7448 51.0207 36.8921 50.882C37.0481 50.7433 37.1694 50.5613 37.2561 50.336C37.3688 50.0587 37.4598 49.7293 37.5291 49.348C37.5984 48.9667 37.6548 48.581 37.6981 48.191C37.7501 47.7923 37.7891 47.4457 37.8151 47.151C37.8758 46.6657 38.0318 46.2973 38.2831 46.046C38.5431 45.7947 38.9374 45.669 39.4661 45.669H42.1571ZM46.9089 45.513C47.6369 45.513 48.2176 45.6213 48.6509 45.838C49.0843 46.0547 49.3963 46.41 49.5869 46.904C49.7863 47.3893 49.8859 48.035 49.8859 48.841C49.8859 49.647 49.7863 50.297 49.5869 50.791C49.3963 51.2763 49.0843 51.6273 48.6509 51.844C48.2176 52.0607 47.6369 52.169 46.9089 52.169C46.1809 52.169 45.5959 52.0607 45.1539 51.844C44.7206 51.6273 44.4043 51.2763 44.2049 50.791C44.0143 50.297 43.9189 49.647 43.9189 48.841C43.9189 48.035 44.0143 47.3893 44.2049 46.904C44.4043 46.41 44.7206 46.0547 45.1539 45.838C45.5959 45.6213 46.1809 45.513 46.9089 45.513ZM46.9089 46.449C46.4496 46.449 46.0856 46.5227 45.8169 46.67C45.5483 46.8087 45.3576 47.0513 45.2449 47.398C45.1323 47.7447 45.0759 48.2257 45.0759 48.841C45.0759 49.4563 45.1323 49.9373 45.2449 50.284C45.3576 50.6307 45.5483 50.8777 45.8169 51.025C46.0856 51.1637 46.4496 51.233 46.9089 51.233C47.3683 51.233 47.7279 51.1637 47.9879 51.025C48.2566 50.8777 48.4473 50.6307 48.5599 50.284C48.6726 49.9373 48.7289 49.4563 48.7289 48.841C48.7289 48.2257 48.6726 47.7447 48.5599 47.398C48.4473 47.0513 48.2566 46.8087 47.9879 46.67C47.7279 46.5227 47.3683 46.449 46.9089 46.449ZM53.0227 45.643C53.5773 45.643 54.1363 45.6473 54.6997 45.656C55.2717 45.6647 55.8177 45.695 56.3377 45.747L56.2987 46.527H53.4777C52.9663 46.527 52.7107 46.787 52.7107 47.307V52H51.6187V47.021C51.6187 46.1023 52.0867 45.643 53.0227 45.643Z" fill="#BFCBD6"/>
</svg>
