<svg width="64" height="64" viewBox="0 0 64 64" fill="none" xmlns="http://www.w3.org/2000/svg">
<path d="M21.2581 43.017C21.8994 43.017 22.5494 43.0213 23.2081 43.03C23.8667 43.03 24.4951 43.0517 25.0931 43.095L25.0411 43.992H21.4401C20.9287 43.992 20.6731 44.278 20.6731 44.85V46.8H24.5341V47.723H20.6731V50.18C20.6731 50.4833 20.7337 50.7043 20.8551 50.843C20.9764 50.9817 21.1714 51.051 21.4401 51.051H25.0411L25.0931 51.935C24.4951 51.9697 23.8667 51.9913 23.2081 52C22.5494 52.0087 21.8994 52.013 21.2581 52.013C20.7294 52.013 20.3091 51.8743 19.9971 51.597C19.6851 51.311 19.5291 50.9297 19.5291 50.453V44.577C19.5291 44.0917 19.6851 43.7103 19.9971 43.433C20.3091 43.1557 20.7294 43.017 21.2581 43.017ZM27.8565 45.669V51.116H30.4825V45.669H31.4835V51.116H34.1355V45.669H35.2015V51.116H36.0725V53.872H35.3315L35.2145 52H26.7905V45.669H27.8565ZM41.4954 43.03C41.7034 43.03 41.8074 43.134 41.8074 43.342V44.057C41.8074 44.265 41.7034 44.369 41.4954 44.369H41.1314C40.9234 44.369 40.8194 44.265 40.8194 44.057V43.342C40.8194 43.134 40.9234 43.03 41.1314 43.03H41.4954ZM39.1944 43.03C39.3938 43.03 39.4934 43.134 39.4934 43.342V44.057C39.4934 44.265 39.3938 44.369 39.1944 44.369H38.8174C38.6181 44.369 38.5184 44.265 38.5184 44.057V43.342C38.5184 43.134 38.6181 43.03 38.8174 43.03H39.1944ZM40.1304 45.513C41.0838 45.513 41.7728 45.6863 42.1974 46.033C42.6308 46.3797 42.8518 46.8953 42.8604 47.58C42.8604 48.1433 42.7391 48.5853 42.4964 48.906C42.2624 49.218 41.8811 49.374 41.3524 49.374H38.4014C38.4361 49.8767 38.5271 50.2623 38.6744 50.531C38.8304 50.791 39.0471 50.973 39.3244 51.077C39.6018 51.1723 39.9571 51.22 40.3904 51.22C40.7371 51.22 41.1098 51.207 41.5084 51.181C41.9158 51.1463 42.2798 51.1073 42.6004 51.064L42.7044 51.805C42.5138 51.883 42.2711 51.948 41.9764 52C41.6818 52.052 41.3784 52.091 41.0664 52.117C40.7631 52.143 40.4901 52.156 40.2474 52.156C39.5281 52.156 38.9431 52.0477 38.4924 51.831C38.0504 51.6057 37.7298 51.2503 37.5304 50.765C37.3311 50.271 37.2314 49.621 37.2314 48.815C37.2314 47.983 37.3311 47.3287 37.5304 46.852C37.7384 46.3667 38.0548 46.0243 38.4794 45.825C38.9041 45.617 39.4544 45.513 40.1304 45.513ZM40.1824 46.449C39.7404 46.449 39.3894 46.5097 39.1294 46.631C38.8781 46.7523 38.6918 46.9647 38.5704 47.268C38.4578 47.5627 38.3928 47.9787 38.3754 48.516H41.0664C41.3438 48.516 41.5258 48.4207 41.6124 48.23C41.7078 48.0307 41.7511 47.814 41.7424 47.58C41.7424 47.1727 41.6254 46.8823 41.3914 46.709C41.1574 46.5357 40.7544 46.449 40.1824 46.449Z" fill="#BFCBD6"/>
<circle cx="22" cy="22" r="2" fill="#BFCBD6"/>
<circle cx="32" cy="22" r="2" fill="#BFCBD6"/>
<circle cx="42" cy="22" r="2" fill="#BFCBD6"/>
</svg>
