<svg width="64" height="64" viewBox="0 0 64 64" fill="none" xmlns="http://www.w3.org/2000/svg">
<path d="M31 29C35.4183 29 39 25.4183 39 21C39 16.5817 35.4183 13 31 13C26.5817 13 23 16.5817 23 21C23 25.4183 26.5817 29 31 29Z" stroke="#BFCBD6" stroke-width="2" stroke-linecap="round" stroke-linejoin="round"/>
<path d="M40.9999 31L36.6499 26.65" stroke="#BFCBD6" stroke-width="2" stroke-linecap="round" stroke-linejoin="round"/>
<path d="M21.0055 43.03V52H19.8615V43.966H15.7145V52H14.5705V43.03H21.0055ZM25.8537 45.513C26.5817 45.513 27.1624 45.6213 27.5957 45.838C28.0291 46.0547 28.3411 46.41 28.5317 46.904C28.7311 47.3893 28.8307 48.035 28.8307 48.841C28.8307 49.647 28.7311 50.297 28.5317 50.791C28.3411 51.2763 28.0291 51.6273 27.5957 51.844C27.1624 52.0607 26.5817 52.169 25.8537 52.169C25.1257 52.169 24.5407 52.0607 24.0987 51.844C23.6654 51.6273 23.3491 51.2763 23.1497 50.791C22.9591 50.297 22.8637 49.647 22.8637 48.841C22.8637 48.035 22.9591 47.3893 23.1497 46.904C23.3491 46.41 23.6654 46.0547 24.0987 45.838C24.5407 45.6213 25.1257 45.513 25.8537 45.513ZM25.8537 46.449C25.3944 46.449 25.0304 46.5227 24.7617 46.67C24.4931 46.8087 24.3024 47.0513 24.1897 47.398C24.0771 47.7447 24.0207 48.2257 24.0207 48.841C24.0207 49.4563 24.0771 49.9373 24.1897 50.284C24.3024 50.6307 24.4931 50.8777 24.7617 51.025C25.0304 51.1637 25.3944 51.233 25.8537 51.233C26.3131 51.233 26.6727 51.1637 26.9327 51.025C27.2014 50.8777 27.3921 50.6307 27.5047 50.284C27.6174 49.9373 27.6737 49.4563 27.6737 48.841C27.6737 48.2257 27.6174 47.7447 27.5047 47.398C27.3921 47.0513 27.2014 46.8087 26.9327 46.67C26.6727 46.5227 26.3131 46.449 25.8537 46.449ZM36.1535 45.669V52H35.1525V47.801C35.1525 47.6623 35.1568 47.528 35.1655 47.398C35.1742 47.2593 35.1828 47.112 35.1915 46.956H35.1655C35.1135 47.0773 35.0442 47.2073 34.9575 47.346C34.8795 47.476 34.8015 47.593 34.7235 47.697L31.4995 52H30.5895V45.669H31.5905V49.868C31.5905 50.0067 31.5862 50.1453 31.5775 50.284C31.5775 50.414 31.5688 50.557 31.5515 50.713H31.5775C31.7162 50.427 31.8678 50.1843 32.0325 49.985L35.2565 45.669H36.1535ZM40.9234 45.513C41.2094 45.513 41.543 45.5347 41.9244 45.578C42.3057 45.6127 42.6524 45.6907 42.9644 45.812L42.8214 46.527C42.5354 46.501 42.232 46.4837 41.9114 46.475C41.5994 46.4577 41.3307 46.449 41.1054 46.449C40.6114 46.449 40.2127 46.5183 39.9094 46.657C39.6147 46.7957 39.4024 47.0383 39.2724 47.385C39.1424 47.7317 39.0774 48.2127 39.0774 48.828C39.0774 49.4433 39.1424 49.9287 39.2724 50.284C39.4024 50.6307 39.6147 50.8733 39.9094 51.012C40.2127 51.1507 40.6114 51.22 41.1054 51.22C41.3047 51.22 41.5864 51.2113 41.9504 51.194C42.3144 51.1767 42.6567 51.142 42.9774 51.09L43.0814 51.831C42.7694 51.9437 42.4227 52.026 42.0414 52.078C41.6687 52.13 41.296 52.156 40.9234 52.156C40.1954 52.156 39.6104 52.0477 39.1684 51.831C38.7264 51.6143 38.4057 51.2633 38.2064 50.778C38.0157 50.2927 37.9204 49.6427 37.9204 48.828C37.9204 48.0133 38.0157 47.3633 38.2064 46.878C38.4057 46.3927 38.7264 46.046 39.1684 45.838C39.6104 45.6213 40.1954 45.513 40.9234 45.513ZM45.7228 45.669V47.554C45.7228 47.8053 45.7012 48.048 45.6578 48.282H46.5418C46.9578 48.282 47.2915 48.178 47.5428 47.97C47.7942 47.762 48.0108 47.463 48.1928 47.073C48.3835 46.683 48.5828 46.215 48.7908 45.669H49.9348C49.7008 46.293 49.4842 46.8217 49.2848 47.255C49.0855 47.6883 48.8515 48.022 48.5828 48.256C48.3228 48.49 47.9675 48.633 47.5168 48.685V48.724C47.9935 48.7673 48.3705 48.9103 48.6478 49.153C48.9252 49.387 49.1722 49.738 49.3888 50.206C49.6055 50.6653 49.8482 51.2633 50.1168 52H48.9598C48.6998 51.3153 48.4702 50.765 48.2708 50.349C48.0715 49.9243 47.8418 49.6167 47.5818 49.426C47.3305 49.2267 46.9838 49.1313 46.5418 49.14H45.6708C45.7055 49.3567 45.7228 49.5603 45.7228 49.751V52H44.6178V45.669H45.7228Z" fill="#BFCBD6"/>
</svg>
